<svg width="39" height="39" viewBox="0 0 39 39" fill="none" xmlns="http://www.w3.org/2000/svg">
<g clip-path="url(#clip0_224_231)">
<path d="M37.1263 37.583L38.9544 29.6611C39.1525 28.8004 38.7031 27.9168 37.8957 27.5664L29.3644 23.9102C28.6179 23.5902 27.7419 23.8035 27.2316 24.4358L23.4535 29.0518C17.6111 26.3096 12.7513 21.5184 9.95582 15.5541L14.5718 11.776C15.2041 11.258 15.4173 10.3897 15.0974 9.64318L11.4412 1.11193C11.0832 0.296887 10.1996 -0.152527 9.33883 0.04552L1.41695 1.87364C0.594296 2.06407 0.000152588 2.79532 0.000152588 3.65607C0.000152588 23.1637 15.8058 38.9998 35.3439 38.9998C36.197 38.9998 36.9359 38.4133 37.1263 37.583Z" fill="#A9A9A9"/>
</g>
<defs>
<clipPath id="clip0_224_231">
<rect width="39" height="39" fill="white" transform="matrix(0 1 -1 0 39 0)"/>
</clipPath>
</defs>
</svg>
